<svg width="31" height="35" viewBox="0 0 31 35" fill="none" xmlns="http://www.w3.org/2000/svg">
<path d="M9.875 4.37496C9.37772 4.37496 8.90081 4.5725 8.54918 4.92413C8.19755 5.27576 8 5.75267 8 6.24996C8 6.74724 8.19755 7.22415 8.54918 7.57578C8.90081 7.92741 9.37772 8.12496 9.875 8.12496C10.3723 8.12496 10.8492 7.92741 11.2008 7.57578C11.5525 7.22415 11.75 6.74724 11.75 6.24996C11.75 5.75267 11.5525 5.27576 11.2008 4.92413C10.8492 4.5725 10.3723 4.37496 9.875 4.37496ZM4.56875 4.37496C4.95613 3.27708 5.67451 2.32639 6.62487 1.65394C7.57524 0.981478 8.71079 0.620361 9.875 0.620361C11.0392 0.620361 12.1748 0.981478 13.1251 1.65394C14.0755 2.32639 14.7939 3.27708 15.1813 4.37496H28.625C29.1223 4.37496 29.5992 4.5725 29.9508 4.92413C30.3025 5.27576 30.5 5.75267 30.5 6.24996C30.5 6.74724 30.3025 7.22415 29.9508 7.57578C29.5992 7.92741 29.1223 8.12496 28.625 8.12496H15.1813C14.7939 9.22283 14.0755 10.1735 13.1251 10.846C12.1748 11.5184 11.0392 11.8796 9.875 11.8796C8.71079 11.8796 7.57524 11.5184 6.62487 10.846C5.67451 10.1735 4.95613 9.22283 4.56875 8.12496H2.375C1.87772 8.12496 1.40081 7.92741 1.04918 7.57578C0.697544 7.22415 0.5 6.74724 0.5 6.24996C0.5 5.75267 0.697544 5.27576 1.04918 4.92413C1.40081 4.5725 1.87772 4.37496 2.375 4.37496H4.56875ZM21.125 15.625C20.6277 15.625 20.1508 15.8225 19.7992 16.1741C19.4475 16.5258 19.25 17.0027 19.25 17.5C19.25 17.9972 19.4475 18.4741 19.7992 18.8258C20.1508 19.1774 20.6277 19.375 21.125 19.375C21.6223 19.375 22.0992 19.1774 22.4508 18.8258C22.8025 18.4741 23 17.9972 23 17.5C23 17.0027 22.8025 16.5258 22.4508 16.1741C22.0992 15.8225 21.6223 15.625 21.125 15.625ZM15.8188 15.625C16.2061 14.5271 16.9245 13.5764 17.8749 12.9039C18.8252 12.2315 19.9608 11.8704 21.125 11.8704C22.2892 11.8704 23.4248 12.2315 24.3751 12.9039C25.3255 13.5764 26.0439 14.5271 26.4313 15.625H28.625C29.1223 15.625 29.5992 15.8225 29.9508 16.1741C30.3025 16.5258 30.5 17.0027 30.5 17.5C30.5 17.9972 30.3025 18.4741 29.9508 18.8258C29.5992 19.1774 29.1223 19.375 28.625 19.375H26.4313C26.0439 20.4728 25.3255 21.4235 24.3751 22.096C23.4248 22.7684 22.2892 23.1296 21.125 23.1296C19.9608 23.1296 18.8252 22.7684 17.8749 22.096C16.9245 21.4235 16.2061 20.4728 15.8188 19.375H2.375C1.87772 19.375 1.40081 19.1774 1.04918 18.8258C0.697544 18.4741 0.5 17.9972 0.5 17.5C0.5 17.0027 0.697544 16.5258 1.04918 16.1741C1.40081 15.8225 1.87772 15.625 2.375 15.625H15.8188ZM9.875 26.875C9.37772 26.875 8.90081 27.0725 8.54918 27.4241C8.19755 27.7758 8 28.2527 8 28.75C8 29.2472 8.19755 29.7242 8.54918 30.0758C8.90081 30.4274 9.37772 30.625 9.875 30.625C10.3723 30.625 10.8492 30.4274 11.2008 30.0758C11.5525 29.7242 11.75 29.2472 11.75 28.75C11.75 28.2527 11.5525 27.7758 11.2008 27.4241C10.8492 27.0725 10.3723 26.875 9.875 26.875ZM4.56875 26.875C4.95613 25.7771 5.67451 24.8264 6.62487 24.1539C7.57524 23.4815 8.71079 23.1204 9.875 23.1204C11.0392 23.1204 12.1748 23.4815 13.1251 24.1539C14.0755 24.8264 14.7939 25.7771 15.1813 26.875H28.625C29.1223 26.875 29.5992 27.0725 29.9508 27.4241C30.3025 27.7758 30.5 28.2527 30.5 28.75C30.5 29.2472 30.3025 29.7242 29.9508 30.0758C29.5992 30.4274 29.1223 30.625 28.625 30.625H15.1813C14.7939 31.7228 14.0755 32.6735 13.1251 33.346C12.1748 34.0184 11.0392 34.3796 9.875 34.3796C8.71079 34.3796 7.57524 34.0184 6.62487 33.346C5.67451 32.6735 4.95613 31.7228 4.56875 30.625H2.375C1.87772 30.625 1.40081 30.4274 1.04918 30.0758C0.697544 29.7242 0.5 29.2472 0.5 28.75C0.5 28.2527 0.697544 27.7758 1.04918 27.4241C1.40081 27.0725 1.87772 26.875 2.375 26.875H4.56875Z" fill="#F8F8F8"/>
</svg>
