<svg width="786" height="184" viewBox="0 0 786 184" fill="none" xmlns="http://www.w3.org/2000/svg">
<g filter="url(#filter0_f_1233_776)">
<rect x="27" y="27" width="732" height="130" rx="16" fill="url(#paint0_linear_1233_776)"/>
<rect x="27" y="27" width="732" height="130" rx="16" fill="url(#paint1_linear_1233_776)" fill-opacity="0.3"/>
</g>
<rect x="28" y="28" width="730" height="128" rx="15" fill="url(#paint2_linear_1233_776)"/>
<rect x="28" y="28" width="730" height="128" rx="15" fill="url(#paint3_linear_1233_776)" fill-opacity="0.3"/>
<rect x="28" y="28" width="730" height="128" rx="15" stroke="white" stroke-width="2"/>
<rect x="28" y="28" width="730" height="128" rx="15" fill="url(#paint4_linear_1233_776)"/>
<rect x="28" y="28" width="730" height="128" rx="15" fill="url(#paint5_linear_1233_776)" fill-opacity="0.3"/>
<rect x="28" y="28" width="730" height="128" rx="15" stroke="white" stroke-width="2"/>
<path d="M55.3672 74V61.6133H67.8945V63.7812H58.25V67.0391H63.4648V69.3008H58.25V74H55.3672ZM71.2109 64.543C71.2109 63.418 71.4219 62.6484 71.8438 62.2344C72.2656 61.8203 73.0781 61.6133 74.2812 61.6133H83.3984C84.6016 61.6133 85.4141 61.8203 85.8359 62.2344C86.2578 62.6484 86.4688 63.418 86.4688 64.543V71.0703C86.4688 72.2031 86.2578 72.9766 85.8359 73.3906C85.4141 73.7969 84.6016 74 83.3984 74H74.2812C73.0781 74 72.2656 73.7969 71.8438 73.3906C71.4219 72.9766 71.2109 72.2031 71.2109 71.0703V64.543ZM74.0938 71.668H83.5977V63.8281H74.0938V71.668ZM101.855 63.7578H95.375V67.2031H101.855C102.355 67.2031 102.695 67.1328 102.875 66.9922C103.062 66.8438 103.156 66.5859 103.156 66.2188V64.7305C103.156 64.3711 103.062 64.1211 102.875 63.9805C102.695 63.832 102.355 63.7578 101.855 63.7578ZM92.5391 74V61.6133H103.133C104.117 61.6133 104.828 61.8047 105.266 62.1875C105.711 62.5625 105.934 63.1719 105.934 64.0156V66.9219C105.934 67.7578 105.711 68.3672 105.266 68.75C104.828 69.1328 104.117 69.3242 103.133 69.3242H101.516L107.234 74H103.098L98.1055 69.3242H95.375V74H92.5391ZM111.781 74V61.6133H114.688V66.7812L121.555 61.6133H125.727L117.523 67.4492L126.734 74H122.105L114.688 68.5508V74H111.781ZM130.836 74V61.6133H143.516V63.7227H133.719V66.4883H139.438V68.5977H133.719V71.668H143.633V74H130.836ZM151.836 71.668H155.562C157.547 71.668 158.953 71.3594 159.781 70.7422C160.609 70.125 161.023 69.1055 161.023 67.6836C161.023 66.418 160.68 65.4609 159.992 64.8125C159.305 64.1562 158.289 63.8281 156.945 63.8281H151.836V71.668ZM148.953 74V61.6133H156.922C159.195 61.6133 160.941 62.1445 162.16 63.207C163.387 64.2695 164 65.7773 164 67.7305C164 68.8867 163.762 69.9297 163.285 70.8594C162.809 71.7812 162.137 72.5078 161.27 73.0391C160.73 73.375 160.059 73.6211 159.254 73.7773C158.457 73.9258 157.434 74 156.184 74H148.953ZM165.559 74.3867L171.793 61.2266H173.375L167.094 74.3867H165.559ZM178.859 71.668H182.586C184.57 71.668 185.977 71.3594 186.805 70.7422C187.633 70.125 188.047 69.1055 188.047 67.6836C188.047 66.418 187.703 65.4609 187.016 64.8125C186.328 64.1562 185.312 63.8281 183.969 63.8281H178.859V71.668ZM175.977 74V61.6133H183.945C186.219 61.6133 187.965 62.1445 189.184 63.207C190.41 64.2695 191.023 65.7773 191.023 67.7305C191.023 68.8867 190.785 69.9297 190.309 70.8594C189.832 71.7812 189.16 72.5078 188.293 73.0391C187.754 73.375 187.082 73.6211 186.277 73.7773C185.48 73.9258 184.457 74 183.207 74H175.977ZM196.32 74V61.6133H209V63.7227H199.203V66.4883H204.922V68.5977H199.203V71.668H209.117V74H196.32ZM218.621 74L211.461 61.6133H214.754L219.77 70.5664L224.551 61.6133H227.422L220.613 74H218.621ZM238.086 68.8438V66.3711H243.676V68.8438H238.086ZM261.758 66.0781V67.5898L247.953 73.2617V71.457L259.332 66.8516L247.953 62.2109V60.418L261.758 66.0781ZM277.297 74V61.6133H279.629L285.465 69.1016L291.172 61.6133H293.48V74H290.809V66.3477C290.809 66.1992 290.816 66.0117 290.832 65.7852C290.855 65.5586 290.883 65.3047 290.914 65.0234C290.758 65.3438 290.621 65.6094 290.504 65.8203C290.387 66.0234 290.281 66.1914 290.188 66.3242L285.535 72.5117H284.961L280.297 66.3008C280.125 66.0664 279.977 65.8477 279.852 65.6445C279.734 65.4336 279.637 65.2305 279.559 65.0352C279.582 65.293 279.598 65.5273 279.605 65.7383C279.621 65.9492 279.629 66.1523 279.629 66.3477V74H277.297ZM302.715 69.0547H308.141L305.469 64.0156L302.715 69.0547ZM297.172 74L304.18 61.6133H306.957L314.059 74H310.824L309.336 71.293H301.484L300.043 74H297.172ZM318.055 74V61.6133H320.938V74H318.055ZM327.242 74V61.6133H329.211L337.93 68.9141C338.227 69.1562 338.488 69.3867 338.715 69.6055C338.941 69.8164 339.148 70.0352 339.336 70.2617C339.289 69.5664 339.258 69.0742 339.242 68.7852C339.227 68.4961 339.219 68.2734 339.219 68.1172V61.6133H341.809V74H339.84L330.746 66.3477C330.527 66.1523 330.336 65.9766 330.172 65.8203C330.008 65.6641 329.855 65.5039 329.715 65.3398C329.754 65.7227 329.781 66.0859 329.797 66.4297C329.82 66.7656 329.832 67.0586 329.832 67.3086V74H327.242ZM344.387 74.3867L350.621 61.2266H352.203L345.922 74.3867H344.387ZM354.781 74V61.6133H357.113L362.949 69.1016L368.656 61.6133H370.965V74H368.293V66.3477C368.293 66.1992 368.301 66.0117 368.316 65.7852C368.34 65.5586 368.367 65.3047 368.398 65.0234C368.242 65.3438 368.105 65.6094 367.988 65.8203C367.871 66.0234 367.766 66.1914 367.672 66.3242L363.02 72.5117H362.445L357.781 66.3008C357.609 66.0664 357.461 65.8477 357.336 65.6445C357.219 65.4336 357.121 65.2305 357.043 65.0352C357.066 65.293 357.082 65.5273 357.09 65.7383C357.105 65.9492 357.113 66.1523 357.113 66.3477V74H354.781ZM380.199 69.0547H385.625L382.953 64.0156L380.199 69.0547ZM374.656 74L381.664 61.6133H384.441L391.543 74H388.309L386.82 71.293H378.969L377.527 74H374.656ZM405.852 63.7812H397.742V66.4414H405.465C406.676 66.4414 407.492 66.6484 407.914 67.0625C408.344 67.4766 408.559 68.2461 408.559 69.3711V71.0703C408.559 72.1953 408.344 72.9648 407.914 73.3789C407.492 73.793 406.676 74 405.465 74H397.812C396.602 74 395.781 73.793 395.352 73.3789C394.93 72.9648 394.719 72.1953 394.719 71.0703V70.7305L397.262 70.2031V71.668H406.016V68.8438H398.293C397.09 68.8438 396.277 68.6367 395.855 68.2227C395.434 67.8086 395.223 67.0391 395.223 65.9141V64.543C395.223 63.418 395.434 62.6484 395.855 62.2344C396.277 61.8203 397.09 61.6133 398.293 61.6133H405.324C406.488 61.6133 407.289 61.8125 407.727 62.2109C408.172 62.6094 408.395 63.3164 408.395 64.332V64.5898L405.852 65.1875V63.7812ZM420.312 63.8281V74H417.43V63.8281H411.746V61.6133H426.02V63.8281H420.312ZM429.547 74V61.6133H442.227V63.7227H432.43V66.4883H438.148V68.5977H432.43V71.668H442.344V74H429.547ZM456.98 63.7578H450.5V67.2031H456.98C457.48 67.2031 457.82 67.1328 458 66.9922C458.188 66.8438 458.281 66.5859 458.281 66.2188V64.7305C458.281 64.3711 458.188 64.1211 458 63.9805C457.82 63.832 457.48 63.7578 456.98 63.7578ZM447.664 74V61.6133H458.258C459.242 61.6133 459.953 61.8047 460.391 62.1875C460.836 62.5625 461.059 63.1719 461.059 64.0156V66.9219C461.059 67.7578 460.836 68.3672 460.391 68.75C459.953 69.1328 459.242 69.3242 458.258 69.3242H456.641L462.359 74H458.223L453.23 69.3242H450.5V74H447.664Z" fill="#E95F8D"/>
<path d="M62.6035 94.4648H57.2031V97.1992H62.6035C63.0202 97.1992 63.3034 97.1406 63.4531 97.0234C63.6094 96.8997 63.6875 96.6849 63.6875 96.3789V95.2754C63.6875 94.9759 63.6094 94.7676 63.4531 94.6504C63.3034 94.5267 63.0202 94.4648 62.6035 94.4648ZM54.8398 103V92.6777H63.668C64.4883 92.6777 65.0807 92.8372 65.4453 93.1562C65.8164 93.4688 66.002 93.9766 66.002 94.6797V96.9844C66.002 97.681 65.8164 98.1888 65.4453 98.5078C65.0807 98.8203 64.4883 98.9766 63.668 98.9766H57.2031V103H54.8398ZM77.4668 94.4648H72.0664V97.3359H77.4668C77.8835 97.3359 78.1667 97.2773 78.3164 97.1602C78.4727 97.0365 78.5508 96.8216 78.5508 96.5156V95.2754C78.5508 94.9759 78.4727 94.7676 78.3164 94.6504C78.1667 94.5267 77.8835 94.4648 77.4668 94.4648ZM69.7031 103V92.6777H78.5312C79.3516 92.6777 79.944 92.8372 80.3086 93.1562C80.6797 93.4688 80.8652 93.9766 80.8652 94.6797V97.1016C80.8652 97.7982 80.6797 98.306 80.3086 98.625C79.944 98.944 79.3516 99.1035 78.5312 99.1035H77.1836L81.9492 103H78.502L74.3418 99.1035H72.0664V103H69.7031ZM98.2969 94.5234V103H95.8945V94.5234H91.1582V92.6777H103.053V94.5234H98.2969ZM105.992 103V92.6777H108.395V103H105.992ZM118.473 94.5234V103H116.07V94.5234H111.334V92.6777H123.229V94.5234H118.473ZM126.168 103V92.6777H128.57V101.057H136.314V103H126.168ZM139.84 103V92.6777H150.406V94.4355H142.242V96.7402H147.008V98.498H142.242V101.057H150.504V103H139.84Z" fill="white"/>
<defs>
<filter id="filter0_f_1233_776" x="0" y="0" width="786" height="184" filterUnits="userSpaceOnUse" color-interpolation-filters="sRGB">
<feFlood flood-opacity="0" result="BackgroundImageFix"/>
<feBlend mode="normal" in="SourceGraphic" in2="BackgroundImageFix" result="shape"/>
<feGaussianBlur stdDeviation="13.5" result="effect1_foregroundBlur_1233_776"/>
</filter>
<linearGradient id="paint0_linear_1233_776" x1="26.9844" y1="92" x2="759" y2="92" gradientUnits="userSpaceOnUse">
<stop stop-color="#1D0F44"/>
<stop offset="1" stop-color="#3D0E3D"/>
</linearGradient>
<linearGradient id="paint1_linear_1233_776" x1="26.9844" y1="92" x2="759" y2="92" gradientUnits="userSpaceOnUse">
<stop stop-color="#32128A" stop-opacity="0.69"/>
<stop offset="0.0001" stop-color="#5029BD" stop-opacity="0.69"/>
<stop offset="0.588542" stop-color="#AA1C64" stop-opacity="0.79"/>
<stop offset="1" stop-color="#E94560"/>
</linearGradient>
<linearGradient id="paint2_linear_1233_776" x1="26.9844" y1="92" x2="759" y2="92" gradientUnits="userSpaceOnUse">
<stop stop-color="#1D0F44"/>
<stop offset="1" stop-color="#3D0E3D"/>
</linearGradient>
<linearGradient id="paint3_linear_1233_776" x1="26.9844" y1="92" x2="759" y2="92" gradientUnits="userSpaceOnUse">
<stop stop-color="#32128A" stop-opacity="0.69"/>
<stop offset="0.0001" stop-color="#5029BD" stop-opacity="0.69"/>
<stop offset="0.588542" stop-color="#AA1C64" stop-opacity="0.79"/>
<stop offset="1" stop-color="#E94560"/>
</linearGradient>
<linearGradient id="paint4_linear_1233_776" x1="26.9844" y1="92" x2="759" y2="92" gradientUnits="userSpaceOnUse">
<stop stop-color="#1D0F44"/>
<stop offset="1" stop-color="#3D0E3D"/>
</linearGradient>
<linearGradient id="paint5_linear_1233_776" x1="26.9844" y1="92" x2="759" y2="92" gradientUnits="userSpaceOnUse">
<stop stop-color="#32128A" stop-opacity="0.69"/>
<stop offset="0.0001" stop-color="#5029BD" stop-opacity="0.69"/>
<stop offset="0.588542" stop-color="#AA1C64" stop-opacity="0.79"/>
<stop offset="1" stop-color="#E94560"/>
</linearGradient>
</defs>
</svg>
