<svg width="565" height="937" viewBox="0 0 565 937" fill="none" xmlns="http://www.w3.org/2000/svg">
<g filter="url(#filter0_d_1233_742)">
<path d="M56.3409 16L22 61.3629V167.156V272.948V484.534V865.278C22 888.709 40.9951 907.704 64.4267 907.704H470.394L543 811.794V58.4267C543 34.9951 524.005 16 500.573 16H299.67H178.006H117.173H56.3409Z" fill="url(#paint0_linear_1233_742)" fill-opacity="0.17" shape-rendering="crispEdges"/>
<path d="M56.3409 16L22 61.3629V167.156V272.948V484.534V865.278C22 888.709 40.9951 907.704 64.4267 907.704H470.394L543 811.794V58.4267C543 34.9951 524.005 16 500.573 16H299.67H178.006H117.173H56.3409Z" stroke="#E95F8D" stroke-width="4.03952" shape-rendering="crispEdges"/>
</g>
<path d="M542.264 726.451C542.264 771.814 542.264 813.09 542.264 813.09L469.658 909H388.878" stroke="#E95F8D" stroke-width="9.93324"/>
<path d="M117.173 16H56.3409L22 61.3629V141.72" stroke="#E95F8D" stroke-width="9.93324"/>
<defs>
<filter id="filter0_d_1233_742" x="0.113997" y="0.73591" width="564.772" height="935.477" filterUnits="userSpaceOnUse" color-interpolation-filters="sRGB">
<feFlood flood-opacity="0" result="BackgroundImageFix"/>
<feColorMatrix in="SourceAlpha" type="matrix" values="0 0 0 0 0 0 0 0 0 0 0 0 0 0 0 0 0 0 127 0" result="hardAlpha"/>
<feOffset dy="6.62216"/>
<feGaussianBlur stdDeviation="9.93324"/>
<feComposite in2="hardAlpha" operator="out"/>
<feColorMatrix type="matrix" values="0 0 0 0 1 0 0 0 0 1 0 0 0 0 1 0 0 0 0.25 0"/>
<feBlend mode="normal" in2="BackgroundImageFix" result="effect1_dropShadow_1233_742"/>
<feBlend mode="normal" in="SourceGraphic" in2="effect1_dropShadow_1233_742" result="shape"/>
</filter>
<linearGradient id="paint0_linear_1233_742" x1="282.5" y1="15.7387" x2="282.5" y2="907.966" gradientUnits="userSpaceOnUse">
<stop stop-color="white" stop-opacity="0"/>
<stop offset="0.740791" stop-color="#DB5CE0"/>
<stop offset="1" stop-color="#610965"/>
</linearGradient>
</defs>
</svg>
