<svg width="37" height="37" viewBox="0 0 37 37" fill="none" xmlns="http://www.w3.org/2000/svg">
<path d="M9.24998 23.125C9.24998 23.9428 8.92513 24.727 8.34689 25.3052C7.76866 25.8835 6.9844 26.2083 6.16665 26.2083C5.3489 26.2083 4.56464 25.8835 3.9864 25.3052C3.40816 24.727 3.08331 23.9428 3.08331 23.125C3.08331 22.3072 3.40816 21.523 3.9864 20.9448C4.56464 20.3665 5.3489 20.0417 6.16665 20.0417H9.24998V23.125ZM10.7916 23.125C10.7916 22.3072 11.1165 21.523 11.6947 20.9448C12.273 20.3665 13.0572 20.0417 13.875 20.0417C14.6927 20.0417 15.477 20.3665 16.0552 20.9448C16.6335 21.523 16.9583 22.3072 16.9583 23.125V30.8333C16.9583 31.6511 16.6335 32.4353 16.0552 33.0136C15.477 33.5918 14.6927 33.9167 13.875 33.9167C13.0572 33.9167 12.273 33.5918 11.6947 33.0136C11.1165 32.4353 10.7916 31.6511 10.7916 30.8333V23.125ZM13.875 10.7917C13.0572 10.7917 12.273 10.4668 11.6947 9.88858C11.1165 9.31034 10.7916 8.52608 10.7916 7.70833C10.7916 6.89058 11.1165 6.10632 11.6947 5.52809C12.273 4.94985 13.0572 4.625 13.875 4.625C14.6927 4.625 15.477 4.94985 16.0552 5.52809C16.6335 6.10632 16.9583 6.89058 16.9583 7.70833V10.7917H13.875ZM13.875 12.3333C14.6927 12.3333 15.477 12.6582 16.0552 13.2364C16.6335 13.8147 16.9583 14.5989 16.9583 15.4167C16.9583 16.2344 16.6335 17.0187 16.0552 17.5969C15.477 18.1751 14.6927 18.5 13.875 18.5H6.16665C5.3489 18.5 4.56464 18.1751 3.9864 17.5969C3.40816 17.0187 3.08331 16.2344 3.08331 15.4167C3.08331 14.5989 3.40816 13.8147 3.9864 13.2364C4.56464 12.6582 5.3489 12.3333 6.16665 12.3333H13.875ZM26.2083 15.4167C26.2083 14.5989 26.5332 13.8147 27.1114 13.2364C27.6896 12.6582 28.4739 12.3333 29.2916 12.3333C30.1094 12.3333 30.8937 12.6582 31.4719 13.2364C32.0501 13.8147 32.375 14.5989 32.375 15.4167C32.375 16.2344 32.0501 17.0187 31.4719 17.5969C30.8937 18.1751 30.1094 18.5 29.2916 18.5H26.2083V15.4167ZM24.6666 15.4167C24.6666 16.2344 24.3418 17.0187 23.7636 17.5969C23.1853 18.1751 22.4011 18.5 21.5833 18.5C20.7656 18.5 19.9813 18.1751 19.4031 17.5969C18.8248 17.0187 18.5 16.2344 18.5 15.4167V7.70833C18.5 6.89058 18.8248 6.10632 19.4031 5.52809C19.9813 4.94985 20.7656 4.625 21.5833 4.625C22.4011 4.625 23.1853 4.94985 23.7636 5.52809C24.3418 6.10632 24.6666 6.89058 24.6666 7.70833V15.4167ZM21.5833 27.75C22.4011 27.75 23.1853 28.0749 23.7636 28.6531C24.3418 29.2313 24.6666 30.0156 24.6666 30.8333C24.6666 31.6511 24.3418 32.4353 23.7636 33.0136C23.1853 33.5918 22.4011 33.9167 21.5833 33.9167C20.7656 33.9167 19.9813 33.5918 19.4031 33.0136C18.8248 32.4353 18.5 31.6511 18.5 30.8333V27.75H21.5833ZM21.5833 26.2083C20.7656 26.2083 19.9813 25.8835 19.4031 25.3052C18.8248 24.727 18.5 23.9428 18.5 23.125C18.5 22.3072 18.8248 21.523 19.4031 20.9448C19.9813 20.3665 20.7656 20.0417 21.5833 20.0417H29.2916C30.1094 20.0417 30.8937 20.3665 31.4719 20.9448C32.0501 21.523 32.375 22.3072 32.375 23.125C32.375 23.9428 32.0501 24.727 31.4719 25.3052C30.8937 25.8835 30.1094 26.2083 29.2916 26.2083H21.5833Z" fill="#F8F8F8"/>
</svg>
